<svg width="84" height="84" viewBox="0 0 84 84" fill="none" xmlns="http://www.w3.org/2000/svg">
<g id="cookie-svg 1" clip-path="url(#clip0_1_5)">
<g id="cookie">
<path id="Vector" d="M78.6442 38.7041L74.6097 39.4808C73.2672 39.7393 71.9179 39.0671 71.3618 37.8626L67.0403 28.5022C66.6745 27.7097 65.9498 27.1238 65.076 26.9133L62.8246 26.3716C61.5219 26.0581 60.6081 24.9315 60.6081 23.6388V8.6189C60.6081 7.91701 60.3358 7.24034 59.8447 6.72147L54.4092 0.979715C49.5085 -0.514199 44.2259 -1.18066 38.7337 -0.832511C17.625 0.506156 0.525041 17.0361 -0.762978 37.3623C-2.2658 61.0814 17.2721 80.7692 41.587 80.7692C64.7788 80.7692 83.6128 62.8552 84 40.6186L80.5269 38.947C79.9448 38.6666 79.2823 38.5813 78.6442 38.7041Z" fill="#FFE6A1"/>
<g id="Group">
<path id="Vector_2" d="M55.0344 68.6065C54.7795 68.6065 54.5283 68.5918 54.2745 68.5873C52.6831 70.3724 50.3728 71.503 47.7931 71.503C43.9934 71.503 40.7718 69.0601 39.5911 65.6627C34.3937 63.6058 29.7058 60.5457 25.766 56.7152C25.17 56.8949 24.551 57.0202 23.8964 57.0202C20.297 57.0202 17.3791 54.1023 17.3791 50.503C17.3791 49.2459 17.7519 48.0826 18.3684 47.087C18.3243 47.0081 18.2772 46.9315 18.2334 46.8523C13.7127 46.5458 10.1379 42.7912 10.1379 38.1927C10.1379 35.4826 11.3792 33.0635 13.3235 31.4698C13.1393 29.8733 13.0344 28.2527 13.0344 26.6065C13.0344 18.3461 15.4288 10.6494 19.5472 4.15385C7.80265 11.6003 0 24.7055 0 39.6411C0 62.837 18.804 81.6411 42 81.6411C56.9356 81.6411 70.0406 73.8384 77.4872 62.0938C70.9917 66.2123 63.295 68.6065 55.0344 68.6065Z" fill="#FFD796"/>
<path id="Vector_3" d="M34.4214 34.4239C36.421 34.4239 38.0421 32.8029 38.0421 30.8032C38.0421 28.8036 36.421 27.1825 34.4214 27.1825C32.4217 27.1825 30.8007 28.8036 30.8007 30.8032C30.8007 32.8029 32.4217 34.4239 34.4214 34.4239Z" fill="#FFD796"/>
<path id="Vector_4" d="M72.8007 58.3204C74.8003 58.3204 76.4214 56.6994 76.4214 54.6997C76.4214 52.7001 74.8003 51.079 72.8007 51.079C70.801 51.079 69.18 52.7001 69.18 54.6997C69.18 56.6994 70.801 58.3204 72.8007 58.3204Z" fill="#FFD796"/>
<path id="Vector_5" d="M39.8523 58.3204C41.252 58.3204 42.3867 57.1857 42.3867 55.786C42.3867 54.3863 41.252 53.2516 39.8523 53.2516C38.4526 53.2516 37.3179 54.3863 37.3179 55.786C37.3179 57.1857 38.4526 58.3204 39.8523 58.3204Z" fill="#FFD796"/>
<path id="Vector_6" d="M59.4041 35.1479C60.8039 35.1479 61.9386 34.0132 61.9386 32.6135C61.9386 31.2137 60.8039 30.079 59.4041 30.079C58.0044 30.079 56.8697 31.2137 56.8697 32.6135C56.8697 34.0132 58.0044 35.1479 59.4041 35.1479Z" fill="#FFD796"/>
<path id="Vector_7" d="M49.2662 12.6997C50.666 12.6997 51.8007 11.565 51.8007 10.1653C51.8007 8.76556 50.666 7.63086 49.2662 7.63086C47.8665 7.63086 46.7318 8.76556 46.7318 10.1653C46.7318 11.565 47.8665 12.6997 49.2662 12.6997Z" fill="#FFD796"/>
</g>
<g id="Group_2">
<path id="Vector_8" d="M39.9015 37.3055L38.2272 40.0961C37.2264 41.7639 38.1215 43.9246 40.0084 44.3963L44.992 45.6422C46.544 46.0302 48.1167 45.0867 48.5046 43.5346L49.0747 41.2542C49.19 40.7928 49.19 40.3105 49.0747 39.8491L48.4719 37.4379C48.097 35.9379 46.61 34.9968 45.0939 35.3L41.8172 35.9553C41.0169 36.1156 40.3215 36.6058 39.9015 37.3055Z" fill="#B97850"/>
<path id="Vector_9" d="M48.2609 55.2354L46.5148 58.1456C45.6468 59.5924 46.1941 61.4721 47.7031 62.2266L53.2619 65.006C54.9193 65.8348 56.9179 64.9154 57.3674 63.1178L57.94 60.8275L58.6092 58.1501C59.0257 56.4839 57.9091 54.8231 56.2086 54.5801L51.154 53.8579C50.0007 53.6932 48.8604 54.2361 48.2609 55.2354Z" fill="#B97850"/>
<path id="Vector_10" d="M17.7865 37.9572L15.6555 41.509C14.9717 42.6487 15.1513 44.1075 16.0911 45.0475L19.4448 48.4014C20.6656 49.6222 22.6764 49.5108 23.7549 48.1627L26.6301 44.5686C27.1948 43.8628 27.3976 42.9337 27.1783 42.0566L26.5225 39.4336C26.251 38.3475 25.3782 37.5154 24.2806 37.2957L20.8382 36.6073C19.6379 36.3671 18.4163 36.9075 17.7865 37.9572Z" fill="#B97850"/>
<path id="Vector_11" d="M29.579 14.4406L27.9357 17.1795C26.9823 18.7684 27.7456 20.8317 29.5035 21.4177L33.0694 22.6063C34.1102 22.9532 35.2577 22.6823 36.0335 21.9066L37.9529 19.9872C38.6723 19.2678 38.9615 18.2236 38.7148 17.2366L38.2128 15.2286C37.8904 13.9389 36.7318 13.0343 35.4025 13.0343H32.0625C31.0454 13.0344 30.1025 13.5683 29.579 14.4406Z" fill="#B97850"/>
<path id="Vector_12" d="M64.5612 36.8271L62.8847 38.5037C61.7536 39.6347 61.7536 41.4688 62.8847 42.6L63.7051 43.4205C64.5868 44.3021 65.9334 44.5207 67.0487 43.963L71.7929 41.591C73.0072 40.9838 73.637 39.6149 73.3077 38.2978L73.0928 37.4382C72.7179 35.9382 71.2309 34.9972 69.7148 35.3003L66.0416 36.035C65.4806 36.1469 64.9656 36.4227 64.5612 36.8271Z" fill="#B97850"/>
<path id="Vector_13" d="M53.791 16.1529L51.8674 18.7179C51.1608 19.6599 51.095 20.9363 51.7009 21.9461L53.4808 24.9126C54.3316 26.3307 56.1952 26.7497 57.5712 25.8325L61.1855 23.4229C62.5692 22.5005 62.8937 20.6051 61.896 19.2749L59.9312 16.6551C59.5777 16.1838 59.0889 15.8314 58.53 15.6452L57.0242 15.1431C55.8413 14.7486 54.539 15.1554 53.791 16.1529Z" fill="#B97850"/>
<path id="Vector_14" d="M29.0044 61.9147L27.1131 64.2789C25.8989 65.7966 26.4946 68.0557 28.2993 68.7778L30.8398 69.794C31.5305 70.0703 32.3008 70.0703 32.9913 69.794L35.8424 68.6534C37.5506 67.9703 38.1973 65.8881 37.1769 64.3573L36.6871 63.6228C36.4074 63.2033 36.0233 62.8643 35.5725 62.6387L32.562 61.1334C31.3399 60.5226 29.8576 60.8483 29.0044 61.9147Z" fill="#B97850"/>
</g>
<g id="Group_3">
<path id="Vector_15" d="M23.039 48.0573L19.6852 44.7036C18.7454 43.7638 18.5656 42.3048 19.2496 41.1652L21.3806 37.6135C21.5624 37.3106 21.8026 37.0647 22.0682 36.8534L20.8384 36.6076C19.6381 36.3676 18.4163 36.908 17.7865 37.9575L15.6555 41.5093C14.9717 42.649 15.1513 44.1079 16.0911 45.0478L19.4448 48.4016C20.5764 49.5331 22.3775 49.5059 23.4947 48.4244C23.3346 48.3182 23.1804 48.1989 23.039 48.0573Z" fill="#A5694B"/>
<path id="Vector_16" d="M35.9704 21.5752L32.4045 20.3867C30.6467 19.8007 29.8831 17.7375 30.8367 16.1485L32.4799 13.4097C32.5634 13.2702 32.6738 13.1555 32.7774 13.0344H32.0624C31.045 13.0344 30.1022 13.5683 29.5786 14.4408L27.9354 17.1795C26.9819 18.7684 27.7451 20.8317 29.5032 21.4177L33.0691 22.6063C34.1099 22.9532 35.2573 22.6823 36.0332 21.9066L36.3031 21.6367C36.1922 21.6138 36.0796 21.6116 35.9704 21.5752Z" fill="#A5694B"/>
<path id="Vector_17" d="M47.7402 44.8094L42.7566 43.5635C40.8696 43.0917 39.9745 40.9311 40.9754 39.2633L42.6497 36.4727C42.849 36.1405 43.1138 35.8601 43.4191 35.6352L41.8172 35.9556C41.0171 36.1156 40.3213 36.606 39.9015 37.3058L38.2272 40.0964C37.2264 41.7642 38.1215 43.9249 40.0084 44.3966L44.992 45.6425C46.0418 45.905 47.0918 45.5487 47.7873 44.8165C47.7715 44.8125 47.7559 44.8133 47.7402 44.8094Z" fill="#A5694B"/>
<path id="Vector_18" d="M56.1863 24.662L54.4064 21.6956C53.8005 20.6858 53.8663 19.4097 54.5729 18.4674L56.4966 15.9026C56.7072 15.6215 56.9687 15.4014 57.2522 15.2188L57.024 15.1428C55.8411 14.7486 54.5388 15.1554 53.7907 16.1528L51.8672 18.7176C51.1606 19.6598 51.0948 20.936 51.7007 21.9458L53.4806 24.9122C54.3286 26.3256 56.1821 26.7448 57.5566 25.8397C57.0058 25.6105 56.5182 25.2151 56.1863 24.662Z" fill="#A5694B"/>
<path id="Vector_19" d="M66.0297 43.2275C64.8985 42.0963 64.8985 40.2624 66.0297 39.1312L67.7063 37.4546C68.1105 37.0504 68.6255 36.7746 69.1865 36.6626L72.2782 36.0442C71.6167 35.4155 70.6722 35.1086 69.7146 35.3002L66.0414 36.0349C65.4806 36.1471 64.9656 36.4227 64.5612 36.8269L62.8847 38.5035C61.7536 39.6347 61.7536 41.4686 62.8847 42.5998L63.7051 43.4203C64.5322 44.2473 65.7626 44.4641 66.833 44.0311L66.0297 43.2275Z" fill="#A5694B"/>
<path id="Vector_20" d="M51.2914 61.9836C49.7823 61.2291 49.2348 59.3494 50.1031 57.9026L51.8492 54.9926C52.0782 54.6112 52.4019 54.3219 52.7589 54.0875L51.1544 53.8583C50.0007 53.6934 48.8606 54.2361 48.2611 55.2354L46.515 58.1456C45.6469 59.5924 46.1943 61.4721 47.7033 62.2266L53.2621 65.006C54.37 65.56 55.6203 65.3208 56.4683 64.5724L51.2914 61.9836Z" fill="#A5694B"/>
<path id="Vector_21" d="M33.7363 69.3098L31.1958 68.2936C29.3913 67.5719 28.7956 65.3125 30.0096 63.7947L31.9009 61.4306C32.021 61.2805 32.1559 61.1492 32.2983 61.0291C31.1325 60.5827 29.7977 60.923 29.0044 61.9147L27.1131 64.2789C25.8989 65.7966 26.4946 68.0558 28.2993 68.7778L30.8398 69.794C31.5305 70.0703 32.3008 70.0703 32.9913 69.794L34.0047 69.3886C33.915 69.3625 33.8236 69.3448 33.7363 69.3098Z" fill="#A5694B"/>
</g>
<path id="Vector_22" d="M11.5934 59.3778C11.3764 59.3778 11.1549 59.3284 10.9472 59.2251C10.2316 58.8673 9.9415 57.9976 10.2995 57.2819L11.7478 54.3854C12.1058 53.6698 12.9734 53.3827 13.691 53.7377C14.4066 54.0957 14.6967 54.9652 14.3387 55.6808L12.8904 58.5774C12.6366 59.085 12.1253 59.3778 11.5934 59.3778Z" fill="#C98850"/>
<path id="Vector_23" d="M37.6641 78.2068H36.2158C35.416 78.2068 34.7675 77.5591 34.7675 76.7584C34.7675 75.958 35.416 75.3101 36.2158 75.3101H37.6641C38.4639 75.3101 39.1125 75.9578 39.1125 76.7584C39.1125 77.5591 38.4639 78.2068 37.6641 78.2068Z" fill="#925F4A"/>
<path id="Vector_24" d="M31.8696 50.6896C31.6526 50.6896 31.4311 50.6402 31.2234 50.5368C30.5078 50.1788 30.2177 49.3091 30.5757 48.5937L32.024 45.6971C32.3812 44.983 33.2489 44.6944 33.9672 45.0494C34.6828 45.4074 34.9729 46.2769 34.6149 46.9926L33.1665 49.8891C32.9127 50.3969 32.4014 50.6896 31.8696 50.6896Z" fill="#C98850"/>
<g id="Group_4">
<path id="Vector_25" d="M23.18 27.5172C22.963 27.5172 22.7415 27.4678 22.5338 27.3645L19.6373 25.9161C18.9216 25.5581 18.6316 24.6886 18.9896 23.973C19.3467 23.2588 20.2151 22.9688 20.9327 23.3253L23.8292 24.7734C24.5449 25.1314 24.8349 26.001 24.477 26.7166C24.2231 27.2244 23.7118 27.5172 23.18 27.5172Z" fill="#925F4A"/>
<path id="Vector_26" d="M40.5608 7.24123H37.6643C36.8645 7.24123 36.2159 6.59351 36.2159 5.79288C36.2159 4.99226 36.8645 4.34454 37.6643 4.34454H40.5608C41.3606 4.34454 42.0092 4.99226 42.0092 5.79288C42.0092 6.59351 41.3606 7.24123 40.5608 7.24123Z" fill="#925F4A"/>
</g>
<path id="Vector_27" d="M46.3554 28.9654C45.8235 28.9654 45.3122 28.6727 45.0584 28.1649L43.6101 25.2684C43.2521 24.5528 43.5422 23.6829 44.2578 23.3253C44.9749 22.9688 45.844 23.2588 46.201 23.973L47.6493 26.8695C48.0073 27.5851 47.7172 28.455 47.0016 28.8127C46.7936 28.916 46.5724 28.9654 46.3554 28.9654Z" fill="#C98850"/>
<g id="Group_5">
<path id="Vector_28" d="M6.60939 36.0572C6.41465 35.9612 6.23796 35.8189 6.09703 35.6344C5.61304 34.9972 5.73757 34.0887 6.37495 33.6049L8.95434 31.6467C9.59107 31.1625 10.4988 31.2882 10.9838 31.9246C11.4678 32.5618 11.3433 33.4702 10.7059 33.9541L8.12664 35.9121C7.67432 36.2554 7.08632 36.2921 6.60939 36.0572Z" fill="#925F4A"/>
<path id="Vector_29" d="M60.8366 52.1379C60.466 52.1379 60.0954 51.9965 59.8127 51.7136L56.9162 48.8171C56.3505 48.2514 56.3505 47.3348 56.9162 46.7691C57.4819 46.2034 58.3985 46.2034 58.9642 46.7691L61.8607 49.6657C62.4264 50.2313 62.4264 51.148 61.8607 51.7136C61.5777 51.9965 61.2071 52.1379 60.8366 52.1379Z" fill="#925F4A"/>
</g>
<path id="Vector_30" d="M63.7332 66.6207C63.3625 66.6207 62.9919 66.4793 62.7092 66.1964C62.1436 65.6307 62.1436 64.7141 62.7092 64.1484L64.1576 62.7001C64.7233 62.1344 65.6399 62.1344 66.2056 62.7001C66.7713 63.2658 66.7713 64.1824 66.2056 64.7481L64.7572 66.1964C64.4742 66.4793 64.1038 66.6207 63.7332 66.6207Z" fill="#C98850"/>
</g>
<g id="crums">
<path id="Vector_31" d="M70.1443 6.79055V9.94941C70.1443 10.8353 71.0097 11.4409 71.8053 11.1119L75.439 9.60944C75.8988 9.41924 76.2004 8.95886 76.2004 8.44699V6.79055C76.2004 6.09912 75.658 5.53846 74.9891 5.53846H71.3554C70.6867 5.53846 70.1443 6.09912 70.1443 6.79055Z" fill="#FFE6A1"/>
<path id="Vector_32" d="M72.7338 16.6611L71.9609 22.2541C71.7791 23.5697 72.6233 24.8031 73.8839 25.0636L76.1021 25.5222C77.0648 25.7213 78.0483 25.3001 78.5928 24.4557L79.4271 23.1622C79.8591 22.4921 79.9533 21.6481 79.6797 20.8941L77.1527 13.9286C76.8384 13.0623 75.7633 12.8216 75.1304 13.4759L73.4191 15.2447C73.0484 15.6278 72.808 16.1249 72.7338 16.6611Z" fill="#FFE6A1"/>
<g id="Group_6">
<path id="Vector_33" d="M77.8881 25.2253L75.6698 24.7667C74.4092 24.506 73.5651 23.2727 73.7469 21.9572L74.5198 16.3644C74.5888 15.8655 74.8138 15.41 75.1412 15.0392C74.8124 15.0221 74.4749 15.1314 74.2124 15.4026L72.501 17.1715C72.1304 17.5546 71.8899 18.0517 71.8159 18.588L71.043 24.1808C70.8612 25.4966 71.7055 26.7298 72.966 26.9903L75.1843 27.4489C76.1468 27.6477 77.1304 27.2268 77.675 26.3825L78.4048 25.2509C78.233 25.2545 78.0611 25.2611 77.8881 25.2253Z" fill="#FFD796"/>
<path id="Vector_34" d="M73.3097 10.5348C72.5141 10.8637 71.6487 10.2581 71.6487 9.37238V7.4656H70.4374C69.7685 7.4656 69.2261 8.02626 69.2261 8.71769V11.8765C69.2261 12.7624 70.0915 13.368 70.8872 13.039L74.5209 11.5366C74.9807 11.3464 75.2822 10.8861 75.2822 10.3741V9.7193L73.3097 10.5348Z" fill="#FFD796"/>
<path id="Vector_35" d="M78.3087 31.0154L77.5927 32.4955C77.4223 32.848 77.4223 33.2628 77.5927 33.6153L77.9194 34.291C78.2453 34.9645 79.0684 35.1906 79.6746 34.7729L81.6272 33.4273C81.9642 33.195 82.1666 32.8041 82.1666 32.3856V31.0366C82.1666 30.1821 81.3566 29.5786 80.5723 29.8489L79.0088 30.3876C78.7042 30.4924 78.4523 30.7182 78.3087 31.0154Z" fill="#FFD796"/>
</g>
</g>
</g>
<defs>
<clipPath id="clip0_1_5">
<rect width="84" height="84" fill="white"/>
</clipPath>
</defs>
</svg>
